{
	"asset":{
		"generator":"Khronos glTF Blender I/O v4.5.47",
		"version":"2.0"
	},
	"extensionsUsed":[
		"KHR_materials_specular"
	],
	"scene":0,
	"scenes":[
		{
			"name":"Scene",
			"nodes":[
				0
			]
		}
	],
	"nodes":[
		{
			"mesh":0,
			"name":"node0.973"
		}
	],
	"materials":[
		{
			"doubleSided":true,
			"extensions":{
				"KHR_materials_specular":{
					"specularFactor":0
				}
			},
			"name":"\u30b7\u30eb\u30d0\u30fc",
			"pbrMetallicRoughness":{
				"baseColorFactor":[
					0.5271109938621521,
					0.5271155834197998,
					0.5271152853965759,
					1
				],
				"roughnessFactor":0.5
			}
		},
		{
			"doubleSided":true,
			"extensions":{
				"KHR_materials_specular":{
					"specularFactor":0
				}
			},
			"name":"\u30d5\u30ec\u30fc\u30e0",
			"pbrMetallicRoughness":{
				"baseColorFactor":[
					0.0295570008456707,
					0.029556870460510254,
					0.029556849971413612,
					1
				],
				"metallicFactor":0.6000000238418579,
				"roughnessFactor":0.5
			}
		}
	],
	"meshes":[
		{
			"name":"YAMAHA_AE88_20241122__Meshed_.10086",
			"primitives":[
				{
					"attributes":{
						"POSITION":0,
						"NORMAL":1
					},
					"indices":2,
					"material":0
				},
				{
					"attributes":{
						"POSITION":3,
						"NORMAL":4
					},
					"indices":5,
					"material":1
				}
			]
		}
	],
	"accessors":[
		{
			"bufferView":0,
			"componentType":5126,
			"count":30077,
			"max":[
				0.18703170120716095,
				0.11245670169591904,
				0.46661269664764404
			],
			"min":[
				-0.09959696978330612,
				-0.11725850403308868,
				-0.09318023175001144
			],
			"type":"VEC3"
		},
		{
			"bufferView":1,
			"componentType":5126,
			"count":30077,
			"type":"VEC3"
		},
		{
			"bufferView":2,
			"componentType":5123,
			"count":39213,
			"type":"SCALAR"
		},
		{
			"bufferView":3,
			"componentType":5126,
			"count":589220,
			"max":[
				0.5186012983322144,
				0.6821845173835754,
				1.610002040863037
			],
			"min":[
				-0.5186012983322144,
				-0.14581380784511566,
				-0.4818021059036255
			],
			"type":"VEC3"
		},
		{
			"bufferView":4,
			"componentType":5126,
			"count":589220,
			"type":"VEC3"
		},
		{
			"bufferView":5,
			"componentType":5125,
			"count":688179,
			"type":"SCALAR"
		}
	],
	"bufferViews":[
		{
			"buffer":0,
			"byteLength":360924,
			"byteOffset":0,
			"target":34962
		},
		{
			"buffer":0,
			"byteLength":360924,
			"byteOffset":360924,
			"target":34962
		},
		{
			"buffer":0,
			"byteLength":78426,
			"byteOffset":721848,
			"target":34963
		},
		{
			"buffer":0,
			"byteLength":7070640,
			"byteOffset":800276,
			"target":34962
		},
		{
			"buffer":0,
			"byteLength":7070640,
			"byteOffset":7870916,
			"target":34962
		},
		{
			"buffer":0,
			"byteLength":2752716,
			"byteOffset":14941556,
			"target":34963
		}
	],
	"buffers":[
		{
			"byteLength":17694272,
			"uri":"yamaha_ae88_frame1.bin"
		}
	]
}
