{
	"asset":{
		"generator":"Khronos glTF Blender I/O v4.5.47",
		"version":"2.0"
	},
	"extensionsUsed":[
		"KHR_materials_specular"
	],
	"scene":0,
	"scenes":[
		{
			"name":"Scene",
			"nodes":[
				0
			]
		}
	],
	"nodes":[
		{
			"mesh":0,
			"name":"node0.305"
		}
	],
	"materials":[
		{
			"doubleSided":true,
			"extensions":{
				"KHR_materials_specular":{
					"specularFactor":0
				}
			},
			"name":"\u30b7\u30eb\u30d0\u30fc",
			"pbrMetallicRoughness":{
				"baseColorFactor":[
					0.5271109938621521,
					0.5271155834197998,
					0.5271152853965759,
					1
				],
				"roughnessFactor":0.5
			}
		},
		{
			"doubleSided":true,
			"extensions":{
				"KHR_materials_specular":{
					"specularFactor":0
				}
			},
			"name":"\u30bf\u30a4\u30e4",
			"pbrMetallicRoughness":{
				"baseColorFactor":[
					0.0295570008456707,
					0.029556870460510254,
					0.029556849971413612,
					1
				],
				"metallicFactor":0,
				"roughnessFactor":0.5
			}
		}
	],
	"meshes":[
		{
			"name":"YAMAHA_AE88_20241122__Meshed_.305",
			"primitives":[
				{
					"attributes":{
						"POSITION":0,
						"NORMAL":1
					},
					"indices":2,
					"material":0
				},
				{
					"attributes":{
						"POSITION":3,
						"NORMAL":4
					},
					"indices":5,
					"material":1
				}
			]
		}
	],
	"accessors":[
		{
			"bufferView":0,
			"componentType":5126,
			"count":150505,
			"max":[
				0.5562731027603149,
				0.09405039995908737,
				-0.11613699793815613
			],
			"min":[
				0.38909491896629333,
				-0.19293390214443207,
				-0.4031212031841278
			],
			"type":"VEC3"
		},
		{
			"bufferView":1,
			"componentType":5126,
			"count":150505,
			"type":"VEC3"
		},
		{
			"bufferView":2,
			"componentType":5125,
			"count":173457,
			"type":"SCALAR"
		},
		{
			"bufferView":3,
			"componentType":5126,
			"count":57482,
			"max":[
				0.5566242933273315,
				0.18685820698738098,
				-0.023378249257802963
			],
			"min":[
				0.38662439584732056,
				-0.28574180603027344,
				-0.4958799183368683
			],
			"type":"VEC3"
		},
		{
			"bufferView":4,
			"componentType":5126,
			"count":57482,
			"type":"VEC3"
		},
		{
			"bufferView":5,
			"componentType":5123,
			"count":74682,
			"type":"SCALAR"
		}
	],
	"bufferViews":[
		{
			"buffer":0,
			"byteLength":1806060,
			"byteOffset":0,
			"target":34962
		},
		{
			"buffer":0,
			"byteLength":1806060,
			"byteOffset":1806060,
			"target":34962
		},
		{
			"buffer":0,
			"byteLength":693828,
			"byteOffset":3612120,
			"target":34963
		},
		{
			"buffer":0,
			"byteLength":689784,
			"byteOffset":4305948,
			"target":34962
		},
		{
			"buffer":0,
			"byteLength":689784,
			"byteOffset":4995732,
			"target":34962
		},
		{
			"buffer":0,
			"byteLength":149364,
			"byteOffset":5685516,
			"target":34963
		}
	],
	"buffers":[
		{
			"byteLength":5834880,
			"uri":"yamaha_ae88_TireRL.bin"
		}
	]
}
