{
	"asset":{
		"generator":"Khronos glTF Blender I/O v4.5.47",
		"version":"2.0"
	},
	"extensionsUsed":[
		"KHR_materials_specular"
	],
	"scene":0,
	"scenes":[
		{
			"name":"Scene",
			"nodes":[
				0
			]
		}
	],
	"nodes":[
		{
			"mesh":0,
			"name":"node0.1358"
		}
	],
	"materials":[
		{
			"doubleSided":true,
			"extensions":{
				"KHR_materials_specular":{
					"specularFactor":0
				}
			},
			"name":"\u30d5\u30ec\u30fc\u30e0",
			"pbrMetallicRoughness":{
				"baseColorFactor":[
					0.0295570008456707,
					0.029556870460510254,
					0.029556849971413612,
					1
				],
				"metallicFactor":0.6000000238418579,
				"roughnessFactor":0.5
			}
		}
	],
	"meshes":[
		{
			"name":"YAMAHA_AE88_20241122__Meshed_.1358",
			"primitives":[
				{
					"attributes":{
						"POSITION":0,
						"NORMAL":1
					},
					"indices":2,
					"material":0
				}
			]
		}
	],
	"accessors":[
		{
			"bufferView":0,
			"componentType":5126,
			"count":128933,
			"max":[
				0.5087385773658752,
				1.1382899284362793,
				1.1830940246582031
			],
			"min":[
				-0.5088626146316528,
				0.3121587932109833,
				0.01830255053937435
			],
			"type":"VEC3"
		},
		{
			"bufferView":1,
			"componentType":5126,
			"count":128933,
			"type":"VEC3"
		},
		{
			"bufferView":2,
			"componentType":5125,
			"count":139269,
			"type":"SCALAR"
		}
	],
	"bufferViews":[
		{
			"buffer":0,
			"byteLength":1547196,
			"byteOffset":0,
			"target":34962
		},
		{
			"buffer":0,
			"byteLength":1547196,
			"byteOffset":1547196,
			"target":34962
		},
		{
			"buffer":0,
			"byteLength":557076,
			"byteOffset":3094392,
			"target":34963
		}
	],
	"buffers":[
		{
			"byteLength":3651468,
			"uri":"yamaha_ae88_frame2.bin"
		}
	]
}
