{
	"asset":{
		"generator":"Khronos glTF Blender I/O v4.5.47",
		"version":"2.0"
	},
	"extensionsUsed":[
		"KHR_materials_specular"
	],
	"scene":0,
	"scenes":[
		{
			"name":"Scene",
			"nodes":[
				0,
				1
			]
		}
	],
	"nodes":[
		{
			"mesh":0,
			"name":"node0.10542"
		},
		{
			"mesh":1,
			"name":"node0.001",
			"translation":[
				0,
				5,
				0
			]
		}
	],
	"materials":[
		{
			"doubleSided":true,
			"extensions":{
				"KHR_materials_specular":{
					"specularFactor":0
				}
			},
			"name":"\u30d5\u30ec\u30fc\u30e0",
			"pbrMetallicRoughness":{
				"baseColorFactor":[
					0.0295570008456707,
					0.029556870460510254,
					0.029556849971413612,
					1
				],
				"metallicFactor":0.6000000238418579,
				"roughnessFactor":0.5
			}
		},
		{
			"doubleSided":true,
			"extensions":{
				"KHR_materials_specular":{
					"specularFactor":0
				}
			},
			"name":"\u30b7\u30eb\u30d0\u30fc",
			"pbrMetallicRoughness":{
				"baseColorFactor":[
					0.5271109938621521,
					0.5271155834197998,
					0.5271152853965759,
					1
				],
				"roughnessFactor":0.5
			}
		}
	],
	"meshes":[
		{
			"name":"YAMAHA_AE88_20241122__Meshed_.10795",
			"primitives":[
				{
					"attributes":{
						"POSITION":0,
						"NORMAL":1
					},
					"indices":2,
					"material":0
				},
				{
					"attributes":{
						"POSITION":3,
						"NORMAL":4
					},
					"indices":5,
					"material":1
				}
			]
		},
		{
			"name":"YAMAHA_AE88_20241122__Meshed_.009",
			"primitives":[
				{
					"attributes":{
						"POSITION":6,
						"NORMAL":7
					},
					"indices":8,
					"material":0
				}
			]
		}
	],
	"accessors":[
		{
			"bufferView":0,
			"componentType":5126,
			"count":2571220,
			"max":[
				0.5866851806640625,
				0.6168462038040161,
				1.540464997291565
			],
			"min":[
				-0.5394654870033264,
				-0.14773109555244446,
				0.747907817363739
			],
			"type":"VEC3"
		},
		{
			"bufferView":1,
			"componentType":5126,
			"count":2571220,
			"type":"VEC3"
		},
		{
			"bufferView":2,
			"componentType":5125,
			"count":2641203,
			"type":"SCALAR"
		},
		{
			"bufferView":3,
			"componentType":5126,
			"count":1479609,
			"max":[
				0.5952402353286743,
				0.4957219064235687,
				1.5008490085601807
			],
			"min":[
				-0.5515295267105103,
				-0.1354089081287384,
				0.7750892043113708
			],
			"type":"VEC3"
		},
		{
			"bufferView":4,
			"componentType":5126,
			"count":1479609,
			"type":"VEC3"
		},
		{
			"bufferView":5,
			"componentType":5125,
			"count":1561497,
			"type":"SCALAR"
		},
		{
			"bufferView":6,
			"componentType":5126,
			"count":3,
			"max":[
				-0.4535340964794159,
				-0.016584929078817368,
				3.4887778759002686
			],
			"min":[
				-0.4614301025867462,
				-0.018052101135253906,
				3.485089063644409
			],
			"type":"VEC3"
		},
		{
			"bufferView":7,
			"componentType":5126,
			"count":3,
			"type":"VEC3"
		},
		{
			"bufferView":8,
			"componentType":5123,
			"count":3,
			"type":"SCALAR"
		}
	],
	"bufferViews":[
		{
			"buffer":0,
			"byteLength":30854640,
			"byteOffset":0,
			"target":34962
		},
		{
			"buffer":0,
			"byteLength":30854640,
			"byteOffset":30854640,
			"target":34962
		},
		{
			"buffer":0,
			"byteLength":10564812,
			"byteOffset":61709280,
			"target":34963
		},
		{
			"buffer":0,
			"byteLength":17755308,
			"byteOffset":72274092,
			"target":34962
		},
		{
			"buffer":0,
			"byteLength":17755308,
			"byteOffset":90029400,
			"target":34962
		},
		{
			"buffer":0,
			"byteLength":6245988,
			"byteOffset":107784708,
			"target":34963
		},
		{
			"buffer":0,
			"byteLength":36,
			"byteOffset":114030696,
			"target":34962
		},
		{
			"buffer":0,
			"byteLength":36,
			"byteOffset":114030732,
			"target":34962
		},
		{
			"buffer":0,
			"byteLength":6,
			"byteOffset":114030768,
			"target":34963
		}
	],
	"buffers":[
		{
			"byteLength":114030776,
			"uri":"yamaha_ae88_frameF.bin"
		}
	]
}
