{
	"asset":{
		"generator":"Khronos glTF Blender I/O v4.5.47",
		"version":"2.0"
	},
	"extensionsUsed":[
		"KHR_materials_specular"
	],
	"scene":0,
	"scenes":[
		{
			"name":"Scene",
			"nodes":[
				0,
				1
			]
		}
	],
	"nodes":[
		{
			"mesh":0,
			"name":"node0.9784"
		},
		{
			"mesh":1,
			"name":"node0.001",
			"translation":[
				0,
				5,
				0
			]
		}
	],
	"materials":[
		{
			"doubleSided":true,
			"extensions":{
				"KHR_materials_specular":{
					"specularFactor":0
				}
			},
			"name":"\u30d5\u30ec\u30fc\u30e0",
			"pbrMetallicRoughness":{
				"baseColorFactor":[
					0.0295570008456707,
					0.029556870460510254,
					0.029556849971413612,
					1
				],
				"metallicFactor":0.6000000238418579,
				"roughnessFactor":0.5
			}
		},
		{
			"doubleSided":true,
			"extensions":{
				"KHR_materials_specular":{
					"specularFactor":0
				}
			},
			"name":"\u30b7\u30eb\u30d0\u30fc",
			"pbrMetallicRoughness":{
				"baseColorFactor":[
					0.5271109938621521,
					0.5271155834197998,
					0.5271152853965759,
					1
				],
				"roughnessFactor":0.5
			}
		},
		{
			"doubleSided":true,
			"extensions":{
				"KHR_materials_specular":{
					"specularFactor":0
				}
			},
			"name":"\u30b7\u30fc\u30b0\u30ea\u30fc\u30f3",
			"pbrMetallicRoughness":{
				"baseColorFactor":[
					0.014442999847233295,
					0.4452016055583954,
					0.4019778072834015,
					1
				],
				"metallicFactor":0.699999988079071,
				"roughnessFactor":0.5
			}
		},
		{
			"doubleSided":true,
			"extensions":{
				"KHR_materials_specular":{
					"specularFactor":0
				}
			},
			"name":"\u30db\u30ef\u30a4\u30c8",
			"pbrMetallicRoughness":{
				"baseColorFactor":[
					0.800000011920929,
					0.800000011920929,
					0.800000011920929,
					1
				],
				"metallicFactor":0.699999988079071,
				"roughnessFactor":0.5
			}
		}
	],
	"meshes":[
		{
			"name":"YAMAHA_AE88_20241122__Meshed_.9784",
			"primitives":[
				{
					"attributes":{
						"POSITION":0,
						"NORMAL":1
					},
					"indices":2,
					"material":0
				},
				{
					"attributes":{
						"POSITION":3,
						"NORMAL":4
					},
					"indices":5,
					"material":1
				},
				{
					"attributes":{
						"POSITION":6,
						"NORMAL":7
					},
					"indices":8,
					"material":2
				},
				{
					"attributes":{
						"POSITION":9,
						"NORMAL":10
					},
					"indices":11,
					"material":3
				}
			]
		},
		{
			"name":"YAMAHA_AE88_20241122__Meshed_.009",
			"primitives":[
				{
					"attributes":{
						"POSITION":12,
						"NORMAL":13
					},
					"indices":14,
					"material":0
				}
			]
		}
	],
	"accessors":[
		{
			"bufferView":0,
			"componentType":5126,
			"count":5013868,
			"max":[
				0.5926486849784851,
				1.044124960899353,
				3.4900498390197754
			],
			"min":[
				-0.5939282774925232,
				-0.1356509029865265,
				-0.5869984030723572
			],
			"type":"VEC3"
		},
		{
			"bufferView":1,
			"componentType":5126,
			"count":5013868,
			"type":"VEC3"
		},
		{
			"bufferView":2,
			"componentType":5125,
			"count":5210274,
			"type":"SCALAR"
		},
		{
			"bufferView":3,
			"componentType":5126,
			"count":1727,
			"max":[
				0.005949913989752531,
				0.0011063809506595135,
				0.7888674139976501
			],
			"min":[
				-0.006050049792975187,
				-0.019006550312042236,
				0.7235648036003113
			],
			"type":"VEC3"
		},
		{
			"bufferView":4,
			"componentType":5126,
			"count":1727,
			"type":"VEC3"
		},
		{
			"bufferView":5,
			"componentType":5123,
			"count":1998,
			"type":"SCALAR"
		},
		{
			"bufferView":6,
			"componentType":5126,
			"count":117798,
			"max":[
				0.44582119584083557,
				0.8297349214553833,
				1.6385159492492676
			],
			"min":[
				-0.5393875241279602,
				-0.06290017813444138,
				-0.24225769937038422
			],
			"type":"VEC3"
		},
		{
			"bufferView":7,
			"componentType":5126,
			"count":117798,
			"type":"VEC3"
		},
		{
			"bufferView":8,
			"componentType":5125,
			"count":118056,
			"type":"SCALAR"
		},
		{
			"bufferView":9,
			"componentType":5126,
			"count":261415,
			"max":[
				0.530746579170227,
				0.6551573872566223,
				1.6511930227279663
			],
			"min":[
				-0.5346519947052002,
				-0.09405767172574997,
				-0.57438063621521
			],
			"type":"VEC3"
		},
		{
			"bufferView":10,
			"componentType":5126,
			"count":261415,
			"type":"VEC3"
		},
		{
			"bufferView":11,
			"componentType":5125,
			"count":262041,
			"type":"SCALAR"
		},
		{
			"bufferView":12,
			"componentType":5126,
			"count":3,
			"max":[
				-0.4535340964794159,
				-0.016584929078817368,
				3.4887778759002686
			],
			"min":[
				-0.4614301025867462,
				-0.018052101135253906,
				3.485089063644409
			],
			"type":"VEC3"
		},
		{
			"bufferView":13,
			"componentType":5126,
			"count":3,
			"type":"VEC3"
		},
		{
			"bufferView":14,
			"componentType":5123,
			"count":3,
			"type":"SCALAR"
		}
	],
	"bufferViews":[
		{
			"buffer":0,
			"byteLength":60166416,
			"byteOffset":0,
			"target":34962
		},
		{
			"buffer":0,
			"byteLength":60166416,
			"byteOffset":60166416,
			"target":34962
		},
		{
			"buffer":0,
			"byteLength":20841096,
			"byteOffset":120332832,
			"target":34963
		},
		{
			"buffer":0,
			"byteLength":20724,
			"byteOffset":141173928,
			"target":34962
		},
		{
			"buffer":0,
			"byteLength":20724,
			"byteOffset":141194652,
			"target":34962
		},
		{
			"buffer":0,
			"byteLength":3996,
			"byteOffset":141215376,
			"target":34963
		},
		{
			"buffer":0,
			"byteLength":1413576,
			"byteOffset":141219372,
			"target":34962
		},
		{
			"buffer":0,
			"byteLength":1413576,
			"byteOffset":142632948,
			"target":34962
		},
		{
			"buffer":0,
			"byteLength":472224,
			"byteOffset":144046524,
			"target":34963
		},
		{
			"buffer":0,
			"byteLength":3136980,
			"byteOffset":144518748,
			"target":34962
		},
		{
			"buffer":0,
			"byteLength":3136980,
			"byteOffset":147655728,
			"target":34962
		},
		{
			"buffer":0,
			"byteLength":1048164,
			"byteOffset":150792708,
			"target":34963
		},
		{
			"buffer":0,
			"byteLength":36,
			"byteOffset":151840872,
			"target":34962
		},
		{
			"buffer":0,
			"byteLength":36,
			"byteOffset":151840908,
			"target":34962
		},
		{
			"buffer":0,
			"byteLength":6,
			"byteOffset":151840944,
			"target":34963
		}
	],
	"buffers":[
		{
			"byteLength":151840952,
			"uri":"yamaha_ae88_body.bin"
		}
	]
}
