{
	"asset":{
		"generator":"Khronos glTF Blender I/O v4.5.47",
		"version":"2.0"
	},
	"extensionsUsed":[
		"KHR_materials_specular"
	],
	"scene":0,
	"scenes":[
		{
			"name":"Scene",
			"nodes":[
				0
			]
		}
	],
	"nodes":[
		{
			"mesh":0,
			"name":"node0.7781"
		}
	],
	"materials":[
		{
			"doubleSided":true,
			"extensions":{
				"KHR_materials_specular":{
					"specularFactor":0
				}
			},
			"name":"\u30b7\u30eb\u30d0\u30fc",
			"pbrMetallicRoughness":{
				"baseColorFactor":[
					0.5271109938621521,
					0.5271155834197998,
					0.5271152853965759,
					1
				],
				"roughnessFactor":0.5
			}
		},
		{
			"doubleSided":true,
			"extensions":{
				"KHR_materials_specular":{
					"specularFactor":0
				}
			},
			"name":"\u30d5\u30ec\u30fc\u30e0",
			"pbrMetallicRoughness":{
				"baseColorFactor":[
					0.0295570008456707,
					0.029556870460510254,
					0.029556849971413612,
					1
				],
				"metallicFactor":0.6000000238418579,
				"roughnessFactor":0.5
			}
		}
	],
	"meshes":[
		{
			"name":"YAMAHA_AE88_20241122__Meshed_.7781",
			"primitives":[
				{
					"attributes":{
						"POSITION":0,
						"NORMAL":1
					},
					"indices":2,
					"material":0
				},
				{
					"attributes":{
						"POSITION":3,
						"NORMAL":4
					},
					"indices":5,
					"material":1
				}
			]
		}
	],
	"accessors":[
		{
			"bufferView":0,
			"componentType":5126,
			"count":424138,
			"max":[
				0.4721842110157013,
				0.28390300273895264,
				0.017983850091695786
			],
			"min":[
				-0.47178420424461365,
				-0.1594398021697998,
				-0.38583430647850037
			],
			"type":"VEC3"
		},
		{
			"bufferView":1,
			"componentType":5126,
			"count":424138,
			"type":"VEC3"
		},
		{
			"bufferView":2,
			"componentType":5125,
			"count":476598,
			"type":"SCALAR"
		},
		{
			"bufferView":3,
			"componentType":5126,
			"count":748859,
			"max":[
				0.32760000228881836,
				0.30931559205055237,
				0.01899098977446556
			],
			"min":[
				-0.35409998893737793,
				-0.15596799552440643,
				-0.4038560092449188
			],
			"type":"VEC3"
		},
		{
			"bufferView":4,
			"componentType":5126,
			"count":748859,
			"type":"VEC3"
		},
		{
			"bufferView":5,
			"componentType":5125,
			"count":800940,
			"type":"SCALAR"
		}
	],
	"bufferViews":[
		{
			"buffer":0,
			"byteLength":5089656,
			"byteOffset":0,
			"target":34962
		},
		{
			"buffer":0,
			"byteLength":5089656,
			"byteOffset":5089656,
			"target":34962
		},
		{
			"buffer":0,
			"byteLength":1906392,
			"byteOffset":10179312,
			"target":34963
		},
		{
			"buffer":0,
			"byteLength":8986308,
			"byteOffset":12085704,
			"target":34962
		},
		{
			"buffer":0,
			"byteLength":8986308,
			"byteOffset":21072012,
			"target":34962
		},
		{
			"buffer":0,
			"byteLength":3203760,
			"byteOffset":30058320,
			"target":34963
		}
	],
	"buffers":[
		{
			"byteLength":33262080,
			"uri":"yamaha_ae88_frameR.bin"
		}
	]
}
