{
	"asset":{
		"generator":"Khronos glTF Blender I/O v4.5.47",
		"version":"2.0"
	},
	"extensionsUsed":[
		"KHR_materials_specular"
	],
	"scene":0,
	"scenes":[
		{
			"name":"Scene",
			"nodes":[
				0
			]
		}
	],
	"nodes":[
		{
			"mesh":0,
			"name":"node0.179"
		}
	],
	"materials":[
		{
			"doubleSided":true,
			"extensions":{
				"KHR_materials_specular":{
					"specularFactor":0
				}
			},
			"name":"\u30b7\u30eb\u30d0\u30fc",
			"pbrMetallicRoughness":{
				"baseColorFactor":[
					0.5271109938621521,
					0.5271155834197998,
					0.5271152853965759,
					1
				],
				"roughnessFactor":0.5
			}
		},
		{
			"doubleSided":true,
			"extensions":{
				"KHR_materials_specular":{
					"specularFactor":0
				}
			},
			"name":"\u30bf\u30a4\u30e4",
			"pbrMetallicRoughness":{
				"baseColorFactor":[
					0.0295570008456707,
					0.029556870460510254,
					0.029556849971413612,
					1
				],
				"metallicFactor":0,
				"roughnessFactor":0.5
			}
		}
	],
	"meshes":[
		{
			"name":"YAMAHA_AE88_20241122__Meshed_.179",
			"primitives":[
				{
					"attributes":{
						"POSITION":0,
						"NORMAL":1
					},
					"indices":2,
					"material":0
				},
				{
					"attributes":{
						"POSITION":3,
						"NORMAL":4
					},
					"indices":5,
					"material":1
				}
			]
		}
	],
	"accessors":[
		{
			"bufferView":0,
			"componentType":5126,
			"count":150518,
			"max":[
				-0.3886949121952057,
				0.09405039995908737,
				-0.11613699793815613
			],
			"min":[
				-0.5558730959892273,
				-0.19293390214443207,
				-0.4031212031841278
			],
			"type":"VEC3"
		},
		{
			"bufferView":1,
			"componentType":5126,
			"count":150518,
			"type":"VEC3"
		},
		{
			"bufferView":2,
			"componentType":5125,
			"count":173508,
			"type":"SCALAR"
		},
		{
			"bufferView":3,
			"componentType":5126,
			"count":57352,
			"max":[
				-0.38622429966926575,
				0.18685820698738098,
				-0.023378249257802963
			],
			"min":[
				-0.5562244057655334,
				-0.28574180603027344,
				-0.4958799183368683
			],
			"type":"VEC3"
		},
		{
			"bufferView":4,
			"componentType":5126,
			"count":57352,
			"type":"VEC3"
		},
		{
			"bufferView":5,
			"componentType":5123,
			"count":74682,
			"type":"SCALAR"
		}
	],
	"bufferViews":[
		{
			"buffer":0,
			"byteLength":1806216,
			"byteOffset":0,
			"target":34962
		},
		{
			"buffer":0,
			"byteLength":1806216,
			"byteOffset":1806216,
			"target":34962
		},
		{
			"buffer":0,
			"byteLength":694032,
			"byteOffset":3612432,
			"target":34963
		},
		{
			"buffer":0,
			"byteLength":688224,
			"byteOffset":4306464,
			"target":34962
		},
		{
			"buffer":0,
			"byteLength":688224,
			"byteOffset":4994688,
			"target":34962
		},
		{
			"buffer":0,
			"byteLength":149364,
			"byteOffset":5682912,
			"target":34963
		}
	],
	"buffers":[
		{
			"byteLength":5832276,
			"uri":"yamaha_ae88_TireRR.bin"
		}
	]
}
