{
	"asset":{
		"generator":"Khronos glTF Blender I/O v4.5.47",
		"version":"2.0"
	},
	"extensionsUsed":[
		"KHR_materials_specular"
	],
	"scene":0,
	"scenes":[
		{
			"name":"Scene",
			"nodes":[
				0
			]
		}
	],
	"nodes":[
		{
			"mesh":0,
			"name":"node0.159"
		}
	],
	"materials":[
		{
			"doubleSided":true,
			"extensions":{
				"KHR_materials_specular":{
					"specularFactor":0
				}
			},
			"name":"\u30b7\u30eb\u30d0\u30fc",
			"pbrMetallicRoughness":{
				"baseColorFactor":[
					0.5271109938621521,
					0.5271155834197998,
					0.5271152853965759,
					1
				],
				"roughnessFactor":0.5
			}
		},
		{
			"doubleSided":true,
			"extensions":{
				"KHR_materials_specular":{
					"specularFactor":0
				}
			},
			"name":"\u30bf\u30a4\u30e4",
			"pbrMetallicRoughness":{
				"baseColorFactor":[
					0.0295570008456707,
					0.029556870460510254,
					0.029556849971413612,
					1
				],
				"metallicFactor":0,
				"roughnessFactor":0.5
			}
		}
	],
	"meshes":[
		{
			"name":"YAMAHA_AE88_20241122__Meshed_.159",
			"primitives":[
				{
					"attributes":{
						"POSITION":0,
						"NORMAL":1
					},
					"indices":2,
					"material":0
				},
				{
					"attributes":{
						"POSITION":3,
						"NORMAL":4
					},
					"indices":5,
					"material":1
				}
			]
		}
	],
	"accessors":[
		{
			"bufferView":0,
			"componentType":5126,
			"count":164158,
			"max":[
				-0.3913955092430115,
				0.08033066242933273,
				1.5528550148010254
			],
			"min":[
				-0.5595000982284546,
				-0.206719309091568,
				1.265436053276062
			],
			"type":"VEC3"
		},
		{
			"bufferView":1,
			"componentType":5126,
			"count":164158,
			"type":"VEC3"
		},
		{
			"bufferView":2,
			"componentType":5125,
			"count":173457,
			"type":"SCALAR"
		},
		{
			"bufferView":3,
			"componentType":5126,
			"count":64618,
			"max":[
				-0.3908703923225403,
				0.17309199273586273,
				1.6455739736557007
			],
			"min":[
				-0.5621445178985596,
				-0.29948359727859497,
				1.1727190017700195
			],
			"type":"VEC3"
		},
		{
			"bufferView":4,
			"componentType":5126,
			"count":64618,
			"type":"VEC3"
		},
		{
			"bufferView":5,
			"componentType":5123,
			"count":74682,
			"type":"SCALAR"
		}
	],
	"bufferViews":[
		{
			"buffer":0,
			"byteLength":1969896,
			"byteOffset":0,
			"target":34962
		},
		{
			"buffer":0,
			"byteLength":1969896,
			"byteOffset":1969896,
			"target":34962
		},
		{
			"buffer":0,
			"byteLength":693828,
			"byteOffset":3939792,
			"target":34963
		},
		{
			"buffer":0,
			"byteLength":775416,
			"byteOffset":4633620,
			"target":34962
		},
		{
			"buffer":0,
			"byteLength":775416,
			"byteOffset":5409036,
			"target":34962
		},
		{
			"buffer":0,
			"byteLength":149364,
			"byteOffset":6184452,
			"target":34963
		}
	],
	"buffers":[
		{
			"byteLength":6333816,
			"uri":"yamaha_ae88_TireFR.bin"
		}
	]
}
