{
	"asset":{
		"generator":"Khronos glTF Blender I/O v4.5.47",
		"version":"2.0"
	},
	"extensionsUsed":[
		"KHR_materials_specular"
	],
	"scene":0,
	"scenes":[
		{
			"name":"Scene",
			"nodes":[
				0
			]
		}
	],
	"nodes":[
		{
			"mesh":0,
			"name":"node0.8307"
		}
	],
	"materials":[
		{
			"doubleSided":true,
			"extensions":{
				"KHR_materials_specular":{
					"specularFactor":0
				}
			},
			"name":"\u30d5\u30ec\u30fc\u30e0",
			"pbrMetallicRoughness":{
				"baseColorFactor":[
					0.0295570008456707,
					0.029556870460510254,
					0.029556849971413612,
					1
				],
				"metallicFactor":0.6000000238418579,
				"roughnessFactor":0.5
			}
		}
	],
	"meshes":[
		{
			"name":"YAMAHA_AE88_20241122__Meshed_.8307",
			"primitives":[
				{
					"attributes":{
						"POSITION":0,
						"NORMAL":1
					},
					"indices":2,
					"material":0
				}
			]
		}
	],
	"accessors":[
		{
			"bufferView":0,
			"componentType":5126,
			"count":185870,
			"max":[
				0.42397820949554443,
				1.1790930032730103,
				0.8752695918083191
			],
			"min":[
				-0.4254024922847748,
				0.9249503016471863,
				0.347855806350708
			],
			"type":"VEC3"
		},
		{
			"bufferView":1,
			"componentType":5126,
			"count":185870,
			"type":"VEC3"
		},
		{
			"bufferView":2,
			"componentType":5125,
			"count":189171,
			"type":"SCALAR"
		}
	],
	"bufferViews":[
		{
			"buffer":0,
			"byteLength":2230440,
			"byteOffset":0,
			"target":34962
		},
		{
			"buffer":0,
			"byteLength":2230440,
			"byteOffset":2230440,
			"target":34962
		},
		{
			"buffer":0,
			"byteLength":756684,
			"byteOffset":4460880,
			"target":34963
		}
	],
	"buffers":[
		{
			"byteLength":5217564,
			"uri":"yamaha_ae88_roof.bin"
		}
	]
}
