{
	"asset":{
		"generator":"Khronos glTF Blender I/O v4.5.47",
		"version":"2.0"
	},
	"extensionsUsed":[
		"KHR_materials_specular"
	],
	"scene":0,
	"scenes":[
		{
			"name":"Scene",
			"nodes":[
				0
			]
		}
	],
	"nodes":[
		{
			"mesh":0,
			"name":"node0.8527"
		}
	],
	"materials":[
		{
			"doubleSided":true,
			"extensions":{
				"KHR_materials_specular":{
					"specularFactor":0
				}
			},
			"name":"\u30b7\u30eb\u30d0\u30fc",
			"pbrMetallicRoughness":{
				"baseColorFactor":[
					0.5271109938621521,
					0.5271155834197998,
					0.5271152853965759,
					1
				],
				"roughnessFactor":0.5
			}
		},
		{
			"doubleSided":true,
			"extensions":{
				"KHR_materials_specular":{
					"specularFactor":0
				}
			},
			"name":"\u30bf\u30a4\u30e4",
			"pbrMetallicRoughness":{
				"baseColorFactor":[
					0.0295570008456707,
					0.029556870460510254,
					0.029556849971413612,
					1
				],
				"metallicFactor":0,
				"roughnessFactor":0.5
			}
		}
	],
	"meshes":[
		{
			"name":"YAMAHA_AE88_20241122__Meshed_.8527",
			"primitives":[
				{
					"attributes":{
						"POSITION":0,
						"NORMAL":1
					},
					"indices":2,
					"material":0
				},
				{
					"attributes":{
						"POSITION":3,
						"NORMAL":4
					},
					"indices":5,
					"material":1
				}
			]
		}
	],
	"accessors":[
		{
			"bufferView":0,
			"componentType":5126,
			"count":164075,
			"max":[
				0.5594797134399414,
				0.07954239100217819,
				1.549818992614746
			],
			"min":[
				0.391374796628952,
				-0.2075708955526352,
				1.262336015701294
			],
			"type":"VEC3"
		},
		{
			"bufferView":1,
			"componentType":5126,
			"count":164075,
			"type":"VEC3"
		},
		{
			"bufferView":2,
			"componentType":5125,
			"count":173472,
			"type":"SCALAR"
		},
		{
			"bufferView":3,
			"componentType":5126,
			"count":64550,
			"max":[
				0.5621238350868225,
				0.1723151057958603,
				1.6424839496612549
			],
			"min":[
				0.3908499777317047,
				-0.3003405034542084,
				1.1696699857711792
			],
			"type":"VEC3"
		},
		{
			"bufferView":4,
			"componentType":5126,
			"count":64550,
			"type":"VEC3"
		},
		{
			"bufferView":5,
			"componentType":5123,
			"count":74682,
			"type":"SCALAR"
		}
	],
	"bufferViews":[
		{
			"buffer":0,
			"byteLength":1968900,
			"byteOffset":0,
			"target":34962
		},
		{
			"buffer":0,
			"byteLength":1968900,
			"byteOffset":1968900,
			"target":34962
		},
		{
			"buffer":0,
			"byteLength":693888,
			"byteOffset":3937800,
			"target":34963
		},
		{
			"buffer":0,
			"byteLength":774600,
			"byteOffset":4631688,
			"target":34962
		},
		{
			"buffer":0,
			"byteLength":774600,
			"byteOffset":5406288,
			"target":34962
		},
		{
			"buffer":0,
			"byteLength":149364,
			"byteOffset":6180888,
			"target":34963
		}
	],
	"buffers":[
		{
			"byteLength":6330252,
			"uri":"yamaha_ae88_TireFL.bin"
		}
	]
}
